<?xml version="1.0" encoding="UTF-8" standalone="no"?>
<svg
   xmlns:dc="http://purl.org/dc/elements/1.1/"
   xmlns:cc="http://creativecommons.org/ns#"
   xmlns:rdf="http://www.w3.org/1999/02/22-rdf-syntax-ns#"
   xmlns:svg="http://www.w3.org/2000/svg"
   xmlns="http://www.w3.org/2000/svg"
   xmlns:sodipodi="http://sodipodi.sourceforge.net/DTD/sodipodi-0.dtd"
   xmlns:inkscape="http://www.inkscape.org/namespaces/inkscape"
   version="1.1"
   id="Layer_1"
   x="0px"
   y="0px"
   width="2200"
   height="1080"
   viewBox="0 0 2200 1080"
   enable-background="new 0 0 512 512"
   xml:space="preserve"
   sodipodi:docname="merion_logo.svg"
   inkscape:version="0.92.4 (5da689c313, 2019-01-14)"
   inkscape:export-filename="C:\Users\jose2\Programming\Python\DJANGO\merion\static\images\merion-1920x748.png"
   inkscape:export-xdpi="1e+02"
   inkscape:export-ydpi="1e+02"><metadata
   id="metadata9"><rdf:RDF><cc:Work
       rdf:about=""><dc:format>image/svg+xml</dc:format><dc:type
         rdf:resource="http://purl.org/dc/dcmitype/StillImage" /><dc:title></dc:title></cc:Work></rdf:RDF></metadata><defs
   id="defs7" /><sodipodi:namedview
   pagecolor="#ac948a"
   bordercolor="#666666"
   borderopacity="1"
   objecttolerance="10"
   gridtolerance="10"
   guidetolerance="10"
   inkscape:pageopacity="0"
   inkscape:pageshadow="2"
   inkscape:window-width="1920"
   inkscape:window-height="1017"
   id="namedview5"
   showgrid="false"
   inkscape:zoom="0.58"
   inkscape:cx="1.1e+03"
   inkscape:cy="6.1e+02"
   inkscape:window-x="-8"
   inkscape:window-y="-8"
   inkscape:window-maximized="1"
   inkscape:current-layer="Layer_1"
   inkscape:object-nodes="false"
   inkscape:snap-nodes="false"
   inkscape:snap-others="false"
   inkscape:snap-global="true" />

<polygon
   stroke-miterlimit="10"
   points="330,170 490,200 370,310 400,470 260,390 120,470 140,310 29,200 190,170 260,30 "
   id="polygon2"
   transform="matrix(1.6,0,0,1.5,1200,81)"
   style="fill:#ecca24;fill-opacity:1;stroke:#ecca01;stroke-width:37.62;stroke-linecap:round;stroke-linejoin:round;stroke-miterlimit:10;stroke-opacity:1"
   inkscape:export-xdpi="31"
   inkscape:export-ydpi="31" /><path
   style="fill:#4f6c9b;fill-opacity:1;stroke:#000000;stroke-width:1px;stroke-linecap:butt;stroke-linejoin:miter;stroke-opacity:1"
   d="m 920,270 -40,80 c 0,0 40,10 50,60 0,50 -20,90 -30,90 -20,0 -20,-60 -20,-60 0,0 -30,-20 -40,-40 -10,-10 -10,-30 -10,-50 v 30 l -70,10 c 0,0 90,-110 160,-120 z"
   id="path4619"
   inkscape:connector-curvature="0"
   transform="translate(620,-64)"
   sodipodi:nodetypes="cccscccccc"
   inkscape:export-xdpi="31"
   inkscape:export-ydpi="31" /><path
   style="fill:none;fill-opacity:1;stroke:#000000;stroke-width:1.5;stroke-linecap:butt;stroke-linejoin:miter;stroke-miterlimit:4;stroke-dasharray:none;stroke-opacity:1"
   d="m 830,370 c -10,0 -10,-10 -20,-10"
   id="path4575"
   inkscape:connector-curvature="0"
   sodipodi:nodetypes="cc"
   transform="translate(630,-58)"
   inkscape:export-xdpi="31"
   inkscape:export-ydpi="31" /><path
   style="fill:#4f6c9b;fill-opacity:1;stroke:#000000;stroke-width:1px;stroke-linecap:butt;stroke-linejoin:miter;stroke-opacity:1"
   d="m 1000,240 100,130 0,10 c 0,20 0,40 100,40 0,0 0,-20 0,-20 l 0,-10 c 0,-10 0,-20 0,-20 0,0 0,0 100,-10 0,0 0,0 0,-10 l 0,-10 c 0,-10 -100,0 -100,0 0,-10 0,-50 -100,-90 0,0 0,-20 -100,-10 z"
   id="path4627"
   inkscape:connector-curvature="0"
   transform="translate(680,-63)"
   sodipodi:nodetypes="cccsccccssccc"
   inkscape:export-xdpi="31"
   inkscape:export-ydpi="31" /><g
   id="g4645"
   transform="translate(630,-52)"
   inkscape:export-xdpi="31"
   inkscape:export-ydpi="31"><g
     id="g4648"
     transform="translate(-200,-62)"><ellipse
       style="fill:#000000;fill-opacity:1;stroke:#000000;stroke-width:13.9;stroke-opacity:1;paint-order:stroke fill markers"
       id="path4577"
       cx="1200"
       cy="290"
       rx="4.6"
       ry="8.3"
       transform="matrix(1,0,0,0.78,170,120)" /></g><ellipse
     transform="matrix(0.26,0,0,0.24,850,210)"
     ry="10"
     rx="8.7"
     cy="290"
     cx="1200"
     id="path4581"
     style="fill:#ffffff;fill-opacity:1;stroke:none;stroke-width:0;stroke-miterlimit:4;stroke-dasharray:none;stroke-opacity:1;paint-order:stroke fill markers" /></g><path
   style="fill:#000000;fill-opacity:1;stroke:#000000;stroke-width:1px;stroke-linecap:butt;stroke-linejoin:miter;stroke-opacity:1"
   d="m 1200,300 c 0,-10 0,-10 0,-20 0,0 0,0 0,10 0,0 0,10 0,10 z"
   id="path4604"
   inkscape:connector-curvature="0"
   transform="matrix(0.63,0.08,-0.12,0.99,1200,-150)"
   sodipodi:nodetypes="cccc"
   inkscape:export-xdpi="31"
   inkscape:export-ydpi="31" /><path
   style="fill:#4f6c9b;fill-opacity:1;stroke:#000000;stroke-width:1px;stroke-linecap:butt;stroke-linejoin:miter;stroke-opacity:1"
   d="m 700,560 c 0,0 -30,90 0,150 0,0 0,10 -20,10 -10,10 -40,60 30,70 -10,-20 -10,-20 -10,-30 0,0 30,-10 20,-30 10,0 10,10 30,10 20,0 30,0 40,20 10,10 0,-30 0,-40 0,0 -10,-30 -60,-20 0,0 -20,-60 30,-80 v 0 0 z"
   id="path4613"
   inkscape:connector-curvature="0"
   transform="translate(630,-61)"
   sodipodi:nodetypes="cccccccccccccc"
   inkscape:export-xdpi="31"
   inkscape:export-ydpi="31" /><path
   style="fill:#4f6c9b;fill-opacity:1;stroke:#000000;stroke-width:1px;stroke-linecap:butt;stroke-linejoin:miter;stroke-opacity:1"
   d="m 900,270 c 10,0 -60,-10 -80,-10 -30,10 -70,30 -60,30 0,10 0,10 0,10 10,0 40,-10 50,0 10,0 10,10 10,10 0,10 -10,20 -10,20 0,0 70,-60 90,-60 z"
   id="path4621"
   inkscape:connector-curvature="0"
   sodipodi:nodetypes="ccsccccc"
   transform="rotate(2.4,2700,15000)"
   inkscape:export-xdpi="31"
   inkscape:export-ydpi="31" /><path
   style="fill:#0f2f32;fill-opacity:1;stroke:#000000;stroke-width:1px;stroke-linecap:butt;stroke-linejoin:miter;stroke-opacity:1"
   d="m 1200,390 c 0,20 0,20 0,20 l 0,-10 c 0,-10 0,-20 0,-30 0,-10 0,0 -100,-30 0,0 100,50 100,50 z"
   id="path4629"
   inkscape:connector-curvature="0"
   transform="translate(650,-69)"
   sodipodi:nodetypes="cccccc"
   inkscape:export-xdpi="31"
   inkscape:export-ydpi="31" /><path
   style="fill:#db0d25;fill-opacity:1;stroke:#000000;stroke-width:1px;stroke-linecap:butt;stroke-linejoin:miter;stroke-opacity:1"
   d="m 1200,380 c 0,10 0,20 0,20 0,-10 0,-20 0,-30 0,-10 0,-10 0,-10 0,-10 0,-10 0,-10 z"
   id="path4631"
   inkscape:connector-curvature="0"
   sodipodi:nodetypes="cccccc"
   transform="translate(630,-58)"
   inkscape:export-xdpi="31"
   inkscape:export-ydpi="31" /><path
   style="fill:none;fill-opacity:1;stroke:#000000;stroke-width:1;stroke-linecap:butt;stroke-linejoin:miter;stroke-miterlimit:4;stroke-dasharray:none;stroke-opacity:1"
   d="m 1200,350 c 0,0 0,0 0,10 0,0 0,10 0,10"
   id="path4583"
   inkscape:connector-curvature="0"
   transform="translate(630,-57)"
   sodipodi:nodetypes="ccc"
   inkscape:export-xdpi="31"
   inkscape:export-ydpi="31" /><path
   style="fill:none;stroke:#000000;stroke-width:1px;stroke-linecap:butt;stroke-linejoin:miter;stroke-opacity:1"
   d="m 1300,360 c -100,0 -100,0 -100,0"
   id="path4633"
   inkscape:connector-curvature="0"
   sodipodi:nodetypes="cc"
   transform="translate(630,-58)"
   inkscape:export-xdpi="31"
   inkscape:export-ydpi="31" /><path
   style="fill:none;stroke:#000000;stroke-width:1px;stroke-linecap:butt;stroke-linejoin:miter;stroke-opacity:1"
   d="m 1300,330 c 0,0 -100,0 -100,0"
   id="path4655"
   inkscape:connector-curvature="0"
   sodipodi:nodetypes="cc"
   transform="translate(630,-57)"
   inkscape:export-xdpi="31"
   inkscape:export-ydpi="31" /><path
   style="fill:none;stroke:#000000;stroke-width:1px;stroke-linecap:butt;stroke-linejoin:miter;stroke-opacity:1"
   d="m 1200,380 c 0,10 0,10 0,20"
   id="path4657"
   inkscape:connector-curvature="0"
   transform="translate(580,-69)"
   sodipodi:nodetypes="cc"
   inkscape:export-xdpi="31"
   inkscape:export-ydpi="31" /><text
   xml:space="preserve"
   style="font-style:normal;font-variant:normal;font-weight:normal;font-stretch:normal;font-size:26.67px;line-height:1.25;font-family:'Vegan Style Personal Use';-inkscape-font-specification:'Vegan Style Personal Use';font-variant-ligatures:normal;font-variant-caps:normal;font-variant-numeric:normal;font-feature-settings:normal;text-align:center;letter-spacing:0px;word-spacing:0px;writing-mode:lr-tb;text-anchor:middle;fill:#ffffff;fill-opacity:1;stroke:none"
   x="280"
   y="430"
   id="text4663"
   transform="matrix(1.7,0,0,2.6,200,-550)"
   inkscape:export-xdpi="1e+02"
   inkscape:export-ydpi="1e+02"><tspan
     sodipodi:role="line"
     id="tspan4661"
     x="280"
     y="430"
     style="font-style:normal;font-variant:normal;font-weight:normal;font-stretch:normal;font-size:192px;font-family:'Harlow Solid Italic';-inkscape-font-specification:'Harlow Solid Italic, ';fill:#ffffff;fill-opacity:1">Merion</tspan></text>
</svg>